<?xml version="1.0"?>
<svg fill="#fff" xmlns="http://www.w3.org/2000/svg" viewBox="0 0 512 512"><g id="outline"><path d="M470.75391,402.96484l-7.16407-21.49463a7.98,7.98,0,0,0-4.31933-4.749A31.80455,31.80455,0,0,0,464,360v-8a7.954,7.954,0,0,0-1.60693-4.79468l.00732-.00561A112.69382,112.69382,0,0,1,440,280V262.9873A32.0573,32.0573,0,0,0,464,232V160a8.00008,8.00008,0,0,0-8-8H424a7.99943,7.99943,0,0,0-6.65625,3.5625L408,169.57764l-9.34375-14.01514A7.99943,7.99943,0,0,0,392,152H360a8.00008,8.00008,0,0,0-8,8v72a32.0573,32.0573,0,0,0,24,30.9873V280a112.69382,112.69382,0,0,1-22.40039,67.19971l.00732.00561A7.954,7.954,0,0,0,352,352v8a31.80455,31.80455,0,0,0,4.72949,16.72119,7.98,7.98,0,0,0-4.31933,4.749l-7.165,21.4961c-.31421.23083-.61621.47717-.926.71387A61.908,61.908,0,0,0,336,395.90381V376a8.00008,8.00008,0,0,0-8-8H315.42529A73.40417,73.40417,0,0,1,296,318.05908V248h8a8.00008,8.00008,0,0,0,8-8v-8a31.99246,31.99246,0,0,0-14.43335-26.72791l21.92358-58.463A7.99991,7.99991,0,0,0,312,136H300.00024l-21.59985-28.7998A8.0009,8.0009,0,0,0,272,104h-8V88h16V72H264V56H248V72H232V88h16v16h-8a8.0009,8.0009,0,0,0-6.40039,3.2002L211.99976,136H200a7.99991,7.99991,0,0,0-7.49023,10.80908l21.92358,58.463A31.99246,31.99246,0,0,0,200,232v8a8.00008,8.00008,0,0,0,8,8h8v70.05908A73.40417,73.40417,0,0,1,196.57471,368H184a8.00008,8.00008,0,0,0-8,8v19.90381a61.90115,61.90115,0,0,0-8.31543,7.77222c-.30981-.23682-.61572-.47876-.92969-.70972L160,382.70068V224a64.07239,64.07239,0,0,0-64-64H32a8.00008,8.00008,0,0,0-8,8v16a8.00035,8.00035,0,0,0,2.34277,5.65674L48,211.314V280a8.00008,8.00008,0,0,0,8,8H72a7.998,7.998,0,0,0,4.99707-1.75293L104,264.64478v12.04174L84.28418,296.40234a123.04017,123.04017,0,0,0-36.26782,86.24927l-6.77027,20.31323A61.762,61.762,0,0,0,16,452.84424V456a8.00008,8.00008,0,0,0,8,8H488a8.00008,8.00008,0,0,0,8-8v-3.15576A61.762,61.762,0,0,0,470.75391,402.96484ZM368,360h80a16.01833,16.01833,0,0,1-16,16H384A16.01833,16.01833,0,0,1,368,360Zm19.71875-192,13.625,20.4375a7.99959,7.99959,0,0,0,13.3125,0L428.28125,168H448v48H368V168ZM368,232h80a16.01833,16.01833,0,0,1-16,16H384A16.01833,16.01833,0,0,1,368,232Zm24,48V264h32v16A128.914,128.914,0,0,0,441.169,344h-66.3379A128.914,128.914,0,0,0,392,280ZM216,232a16.01833,16.01833,0,0,1,16-16h48a16.01833,16.01833,0,0,1,16,16Zm28-112h24l12,16H232ZM229.544,200l-18-48h88.9121l-18,48ZM232,318.05908V248h48v70.05908A89.308,89.308,0,0,0,295.1084,368H216.8916A89.308,89.308,0,0,0,232,318.05908ZM69.19336,272H64V208a8.00035,8.00035,0,0,0-2.34277-5.65674L40,180.686V176H96a48.05468,48.05468,0,0,1,48,48v71.35522l-24-19.19995V232a32.03635,32.03635,0,0,0-32-32v16a16.01833,16.01833,0,0,1,16,16v12.15527Zm26.40527,35.71582L112.594,290.72,144,315.84473V376H64.29077A107.07666,107.07666,0,0,1,95.59863,307.71582ZM52.4375,414.65625a7.99788,7.99788,0,0,0,3.15234-4.12646L61.76562,392h84.46876l6.17578,18.52979a7.99788,7.99788,0,0,0,3.15234,4.12646c1.06226.70825,2.09058,1.47058,3.092,2.2666A61.83671,61.83671,0,0,0,152,444.84424V448H32.25391A45.79056,45.79056,0,0,1,52.4375,414.65625ZM168,448v-3.15576a45.8058,45.8058,0,0,1,20.4375-38.188A7.99943,7.99943,0,0,0,192,400V384H320v16a7.99943,7.99943,0,0,0,3.5625,6.65625A45.8058,45.8058,0,0,1,344,444.84424V448Zm192,0v-3.15576a61.83953,61.83953,0,0,0-6.65039-27.91382c1.001-.79565,2.02368-1.56458,3.08789-2.27417a7.99979,7.99979,0,0,0,3.15234-4.12646L365.76562,392h84.46876l6.17578,18.52979a7.99788,7.99788,0,0,0,3.15234,4.12646A45.79056,45.79056,0,0,1,479.74609,448Z"/></g></svg>
