<svg  fill="#fff" enable-background="new 0 0 300 300"  viewBox="0 0 300 300" 
 xmlns="http://www.w3.org/2000/svg"><g><path d="m137.125 112.91c2.211 0 4-1.789 4-4v-20c0-2.211-1.789-4-4-4s-4 1.789-4 4v20c0 2.211 1.789 4 4 4z"/><path d="m153.121 116.91c1.293 0 2.562-.625 3.332-1.781l8-12c1.227-1.84.73-4.32-1.109-5.547-1.848-1.223-4.328-.73-5.547 1.109l-8 12c-1.227 1.84-.73 4.32 1.109 5.547.684.453 1.453.672 2.215.672z"/><path d="m117.797 115.129c.77 1.156 2.039 1.781 3.332 1.781.762 0 1.531-.219 2.215-.672 1.84-1.227 2.336-3.707 1.109-5.547l-8-12c-1.223-1.84-3.703-2.332-5.547-1.109-1.84 1.227-2.336 3.707-1.109 5.547z"/><path d="m137.125 212.91c2.211 0 4-1.789 4-4v-4h1.559c7.965 0 14.441-6.477 14.441-14.441v-3.117c0-7.965-6.477-14.441-14.441-14.441h-1.559v-16h8c2.211 0 4-1.789 4-4s-1.789-4-4-4h-8v-4c0-2.211-1.789-4-4-4s-4 1.789-4 4v4h-1.559c-7.965 0-14.441 6.477-14.441 14.441v3.117c0 7.965 6.477 14.441 14.441 14.441h1.559v16h-11.242c-2.211 0-4 1.789-4 4s1.789 4 4 4h11.242v4c0 2.211 1.789 4 4 4zm-5.559-40c-3.551 0-6.441-2.891-6.441-6.441v-3.117c0-3.551 2.891-6.441 6.441-6.441h1.559v16h-1.559zm9.559 8h1.559c3.551 0 6.441 2.891 6.441 6.441v3.117c0 3.551-2.891 6.441-6.441 6.441h-1.559z"/><path d="m37.125 160.91v28c0 2.211 1.789 4 4 4s4-1.789 4-4v-24.332c10.035-1.691 17.977-9.633 19.668-19.668h24.332c2.211 0 4-1.789 4-4s-1.789-4-4-4h-28c-2.211 0-4 1.789-4 4 0 8.824-7.176 16-16 16-2.211 0-4 1.789-4 4z"/><path d="m237.125 192.91v-28c0-2.211-1.789-4-4-4s-4 1.789-4 4v24.332c-10.035 1.691-17.977 9.633-19.668 19.668h-24.332c-2.211 0-4 1.789-4 4s1.789 4 4 4h28c2.211 0 4-1.789 4-4 0-8.824 7.176-16 16-16 2.211 0 4-1.789 4-4z"/><circle cx="45.125" cy="144.91" r="4"/><circle cx="229.125" cy="208.91" r="4"/><path d="m274.875 96.383c0-27.18-22.113-49.293-49.293-49.293s-49.293 22.113-49.293 49.293 22.113 49.293 49.293 49.293c5.435 0 10.65-.918 15.543-2.55v77.785h-208v-88h138.512c2.211 0 4-1.789 4-4s-1.789-4-4-4h-142.512c-2.211 0-4 1.789-4 4v96c0 2.211 1.789 4 4 4h4v8c0 2.211 1.789 4 4 4h12v8c0 2.211 1.789 4 4 4h164c2.211 0 4-1.789 4-4v-8h12c2.211 0 4-1.789 4-4v-8h8c2.211 0 4-1.789 4-4v-85.233c15.327-8.369 25.75-24.637 25.75-43.295zm-61.75 148.527h-156v-4h156zm16-12h-188v-4h188zm-3.543-95.234c-22.77 0-41.293-18.523-41.293-41.293s18.523-41.293 41.293-41.293 41.293 18.523 41.293 41.293-18.523 41.293-41.293 41.293z"/><path d="m225.582 60.219c-19.938 0-36.16 16.223-36.16 36.164s16.223 36.164 36.16 36.164c19.941 0 36.164-16.223 36.164-36.164s-16.223-36.164-36.164-36.164zm0 64.328c-15.527 0-28.16-12.633-28.16-28.164s12.633-28.164 28.16-28.164c15.531 0 28.164 12.633 28.164 28.164s-12.633 28.164-28.164 28.164z"/><path d="m229.125 96.73v-16.476c0-2.211-1.789-4-4-4s-4 1.789-4 4v18.434c0 1.234.57 2.398 1.543 3.156l8 6.223c.73.57 1.598.844 2.453.844 1.191 0 2.371-.531 3.16-1.543 1.359-1.746 1.043-4.258-.699-5.613z"/></g></svg>