<svg  fill="#fff" viewBox="0 0 480 480" xmlns="http://www.w3.org/2000/svg"><path d="m416 0h-48v32h-184v-32h-48v32h-64v176h-40v16h40v32h-32v16h32v16h-16v16h16v48h-72v40c.0351562 30.914062 25.085938 55.964844 56 56h16v32h408v-448h-64zm-32 16h16v48h-16zm-232 0h16v48h-16zm-64 288h104v-16h-104v-16h96v-16h-96v-32h88v-16h-88v-16h112v-16h-112v-64h304v280c-.027344 22.082031-17.917969 39.972656-40 40h-8c-22.082031-.027344-39.972656-17.917969-40-40v-40h-216zm-72 88v-24h272v24c-.019531 15.050781 6.039062 29.476562 16.800781 40h-248.800781c-22.082031-.027344-39.972656-17.917969-40-40zm72 72v-16h264c15.066406.003906 29.496094-6.085938 40-16.886719v32.886719zm376 0h-24v-120h-16v120h-16v-352h16v32h16v-32h24zm0-416v48h-376v-48h48v32h48v-32h184v32h48v-32zm0 0"/><path d="m104 64h16v16h-16zm0 0"/><path d="m200 64h16v16h-16zm0 0"/><path d="m232 64h88v16h-88zm0 0"/><path d="m336 64h16v16h-16zm0 0"/><path d="m432 64h16v16h-16zm0 0"/><path d="m424 312h16v16h-16zm0 0"/><path d="m256 384h16v16h-16zm0 0"/><path d="m376 232c0-48.601562-39.398438-88-88-88s-88 39.398438-88 88 39.398438 88 88 88c48.578125-.058594 87.941406-39.421875 88-88zm-159.527344 8h15.527344v-16h-15.527344c1.507813-13.5 6.824219-26.292969 15.328125-36.886719l10.542969 10.542969 11.3125-11.3125-10.542969-10.542969c10.59375-8.503906 23.386719-13.820312 36.886719-15.328125v15.527344h16v-15.527344c13.5 1.507813 26.292969 6.824219 36.886719 15.328125l-10.542969 10.542969 11.3125 11.3125 10.542969-10.542969c8.503906 10.59375 13.820312 23.386719 15.328125 36.886719h-15.527344v16h15.527344c-1.507813 13.5-6.824219 26.292969-15.328125 36.886719l-10.542969-10.542969-11.3125 11.3125 10.542969 10.542969c-10.59375 8.503906-23.386719 13.820312-36.886719 15.328125v-15.527344h-16v15.527344c-13.5-1.507813-26.292969-6.824219-36.886719-15.328125l10.542969-10.542969-11.3125-11.3125-10.542969 10.542969c-8.503906-10.59375-13.820312-23.386719-15.328125-36.886719zm0 0"/><path d="m325.65625 258.34375-29.65625-29.65625v-36.6875h-16v43.3125l34.34375 34.34375zm0 0"/><path d="m40 176h16v16h-16zm0 0"/><path d="m8 256h16v16h-16zm0 0"/></svg>