<?xml version="1.0" standalone="no"?>
<!DOCTYPE svg PUBLIC "-//W3C//DTD SVG 20010904//EN"
 "http://www.w3.org/TR/2001/REC-SVG-20010904/DTD/svg10.dtd">
<svg version="1.0" xmlns="http://www.w3.org/2000/svg"
 width="1067.000000pt" height="389.000000pt" viewBox="0 0 1067.000000 389.000000"
 preserveAspectRatio="xMidYMid meet">

<g transform="translate(0.000000,389.000000) scale(0.100000,-0.100000)"
fill="#000000" stroke="none">
<path d="M5270 3879 c-652 -40 -1249 -431 -1554 -1019 l-65 -125 -1 506 0 506
-172 6 c-299 12 -536 8 -607 -8 -206 -49 -391 -225 -463 -440 -22 -68 -23 -81
-26 -523 -2 -249 -7 -452 -11 -450 -5 2 -280 264 -611 583 -709 682 -767 735
-842 775 -100 54 -155 60 -550 60 l-358 0 0 -1781 0 -1781 352 4 c322 4 360 7
433 26 240 65 381 206 447 447 21 77 22 94 19 525 l-2 445 48 -46 c436 -416
1244 -1178 1293 -1219 87 -74 158 -118 238 -149 67 -25 68 -25 440 -29 l372
-4 0 519 0 518 59 -111 c109 -210 209 -342 384 -510 142 -137 264 -224 437
-313 213 -109 417 -172 652 -201 182 -23 615 4 652 40 4 5 -3 23 -17 42 -39
51 -94 174 -118 263 -16 60 -21 110 -21 200 0 90 5 140 21 200 77 291 285 503
578 591 74 23 108 27 213 27 136 1 215 -14 322 -59 183 -77 356 -245 434 -421
52 -116 68 -199 68 -338 0 -148 -19 -236 -80 -363 -20 -41 -33 -76 -30 -79 11
-12 415 18 504 37 220 47 462 154 652 288 112 79 343 304 426 416 l58 79 26
-34 c117 -153 253 -298 370 -394 211 -172 455 -291 720 -351 118 -27 371 -48
497 -42 99 5 149 33 182 100 21 44 21 54 21 591 0 301 -2 547 -4 547 -2 0 -33
-14 -68 -30 -170 -80 -375 -78 -539 4 -129 65 -227 163 -289 289 -91 185 -91
375 1 563 98 200 290 328 513 341 112 7 226 -13 319 -56 l67 -30 0 558 0 558
-23 34 c-12 19 -41 44 -64 57 -80 44 -385 40 -604 -8 -411 -89 -805 -348
-1061 -696 l-63 -85 -20 27 c-229 314 -478 518 -807 661 -196 85 -372 122
-618 130 -189 6 -263 -4 -310 -44 -59 -50 -60 -53 -61 -400 l0 -318 -22 29
c-12 16 -49 66 -82 110 -293 396 -762 674 -1250 740 -143 19 -263 24 -405 15z
m280 -1285 c221 -52 407 -235 465 -459 20 -77 20 -232 0 -310 -53 -206 -210
-371 -422 -446 -83 -29 -237 -36 -328 -15 -108 26 -206 78 -285 152 -88 83
-136 156 -174 264 -53 150 -39 346 34 490 77 151 238 278 410 324 72 19 219
20 300 0z m1984 -14 c112 -28 189 -73 277 -160 251 -249 251 -640 0 -891 -147
-146 -353 -215 -541 -179 -30 6 -55 12 -57 14 -2 2 7 44 21 92 97 338 95 732
-3 1062 -14 46 -16 64 -8 67 62 21 222 18 311 -5z"/>
</g>
</svg>
